<?xml version="1.0" encoding="UTF-8" standalone="no"?>
<!-- Created with Inkscape (http://www.inkscape.org/) -->

<svg
   version="1.1"
   id="svg98"
   width="512"
   height="512"
   viewBox="0 0 512.00006 512.00004"
   sodipodi:docname="logo.svg"
   inkscape:version="1.2.2 (b0a8486541, 2022-12-01)"
   xml:space="preserve"
   xmlns:inkscape="http://www.inkscape.org/namespaces/inkscape"
   xmlns:sodipodi="http://sodipodi.sourceforge.net/DTD/sodipodi-0.dtd"
   xmlns="http://www.w3.org/2000/svg"
   xmlns:svg="http://www.w3.org/2000/svg"><defs
     id="defs102" /><sodipodi:namedview
     id="namedview100"
     pagecolor="#505050"
     bordercolor="#eeeeee"
     borderopacity="1"
     inkscape:showpageshadow="0"
     inkscape:pageopacity="0"
     inkscape:pagecheckerboard="0"
     inkscape:deskcolor="#505050"
     showgrid="false"
     inkscape:zoom="1.5478723"
     inkscape:cx="63.312716"
     inkscape:cy="472.90723"
     inkscape:window-width="1920"
     inkscape:window-height="1031"
     inkscape:window-x="0"
     inkscape:window-y="1105"
     inkscape:window-maximized="1"
     inkscape:current-layer="g104" /><g
     inkscape:groupmode="layer"
     inkscape:label="Image"
     id="g104"
     transform="translate(50.128645,12.146025)"><path
       style="fill:#000000;stroke-width:2.79378"
       d="M 83.625192,115.12698 C 41.808504,71.693594 27.017512,50.349428 33.402106,42.652418 37.619697,37.567859 60.776491,20.309326 78.133125,15.249195 126.6526,1.1038873 182.64929,-4.3297137 236.05811,9.3572303 l 18.29592,4.6886617 c 32.47221,-36.690604 92.95279,-33.351912 133.5864,0.770881 40.63363,34.122829 55.28598,95.343327 23.00482,132.122837 25.19249,42.88708 35.5876,94.51292 36.5923,141.16974 0.61038,28.34451 -12.80466,72.66628 -18.66626,79.73976 -4.94288,5.96206 -36.82699,-1.81027 -70.20163,-25.77551 C 325.29505,318.10836 312.9855,309.51165 296.54873,294.39187 233.52459,248.0055 196.05001,216.1895 118.14127,148.4822 c -2.95514,-1.69685 -23.048776,-21.94813 -34.51618,-33.3551 -11.467401,-11.40697 8.3e-5,-1e-4 8.3e-5,-1e-4 z M 106.91316,66.670529 c 22.82811,13.474285 45.36696,27.704535 66.82834,43.470261 30.72895,22.57377 58.84355,48.59388 88.26522,72.89092 29.4217,24.29704 88.26526,72.8909 88.26526,72.8909 0,0 -26.70017,-32.17755 -39.37915,-45.76205 -25.71809,-27.54448 -56.01505,-50.38086 -85.03211,-74.39797 l -64.66827,-53.525146 31.86103,16.57492 c 0,0 12.1418,-8.84985 19.47319,-11.16573 10.51625,-3.32195 29.26783,-7.48629 34.01187,-3.55116 0.65077,0.53982 -13.56119,6.89513 -19.11776,11.77666 -4.61584,4.05505 -11.52776,14.296146 -11.52776,14.296146 0,0 58.83703,-18.642646 90.33261,-11.780646 21.421,4.667026 45.35804,22.966216 59.04627,34.262376 l -3.88354,-9.66214 c 0,0 -23.27851,-20.05765 -35.42889,-29.438836 C 307.65318,79.415004 290.46874,64.077727 269.60074,53.176018 229.65705,32.308517 185.12866,28.929174 144.45181,30.975665 c -24.12138,1.213558 -46.256166,9.695403 -66.538434,20.24618 10.680178,4.481597 19.536928,9.863223 28.999804,15.44866 z"
       id="path436"
       sodipodi:nodetypes="asasczcaszcczcaaaccsccasacaccacacaca" /><path
       style="display:inline;fill:#000000;stroke-width:0.690547"
       d="m 268.44488,279.17804 -10.52099,12.6837 2.18546,2.3836 c 1.20191,1.31113 6.7518,6.1802 12.33288,10.82063 11.32997,9.41672 12.98929,11.60596 13.19942,17.38111 0.2365,6.50268 4.89102,0.49272 -70.78303,91.39527 l -68.92272,82.79219 -2.87436,1.03157 c -3.24169,1.1633 -3.72696,1.50765 -2.38867,1.69471 0.57953,0.0811 0.59003,0.2436 0.0272,0.43321 -0.49545,0.16662 -1.01164,-0.0262 -1.14716,-0.42875 -0.13558,-0.40248 -1.46918,-0.72317 -2.96338,-0.71277 -1.49432,0.0103 -3.81135,-0.47167 -5.14894,-1.07152 -1.62414,-0.72859 -29.66801,-23.68097 -84.439263,-69.10984 -79.818263,-66.20549 -82.037966,-68.0909 -83.160989,-70.6987 -0.634526,-1.47365 -1.286167,-4.1338 -1.448103,-5.91146 -0.613379,-6.73432 -6.106476,0.42101 69.81108,-90.93673 68.035615,-81.87285 68.687785,-82.63773 71.770625,-84.17219 1.7111,-0.85172 4.3736,-1.55748 5.9167,-1.56836 5.49795,-0.0387 6.93331,0.77898 19.1364,10.90133 6.22537,5.16388 11.81752,9.55759 12.42727,9.76349 0.96774,0.32709 2.43894,-1.22937 11.592,-12.26393 25.59545,-37.94832 51.99957,-15.47911 19.69272,16.27942 l -10.50257,12.66146 1.01468,1.2104 c 0.55788,0.66595 6.69263,5.80352 13.63304,11.41646 6.93992,5.61348 12.9181,10.45314 13.28437,10.75509 0.51364,0.42454 3.06534,-2.34338 11.18726,-12.13485 14.55325,-25.43725 43.29991,-11.917 19.0666,16.20464 l -10.40722,12.83689 13.84132,11.66949 13.84131,11.6695 10.91651,-12.85398 c 26.76989,-32.94743 51.73368,-23.0379 19.83056,15.87893 z M 103.94096,219.58741 c -1.47917,0.0813 -2.7217,0.57739 -2.92072,1.16602 -0.19048,0.5635 -0.5183,0.88182 -0.7283,0.70762 -0.21002,-0.1743 -23.669693,27.8864 -52.132537,62.35713 l -51.7507059,62.67407 0.134399,2.17465 0.134409,2.17469 68.7364399,57.0162 c 68.027785,56.42839 68.756545,57.01429 70.681215,56.83492 1.92305,-0.17924 2.53254,-0.8899 54.65009,-63.72071 l 52.70534,-63.53944 -0.32518,-2.46994 -0.32524,-2.46994 -68.14235,-56.52342 -68.14236,-56.5234 z m 61.25873,68.05446 59.0173,49.18206 -45.18945,54.4786 -45.18948,54.47862 -59.283052,-49.4025 -59.283037,-49.4025 44.538287,-53.96929 c 24.496079,-29.68305 44.951062,-54.09918 45.455252,-54.2582 0.69286,-0.21831 15.33468,11.72631 59.93391,48.8934 z m -22.75691,5.10847 c -4.67181,-2.27868 -16.27243,-5.29289 -17.56825,-4.56478 -6.9497,0.45968 -15.05095,0.29951 -21.36158,2.19631 -11.735566,3.69176 -18.992628,8.82369 -26.604274,18.81357 -5.703419,7.48545 -7.890868,11.87006 -9.854646,19.75289 -3.624821,14.55057 -0.524442,31.20515 8.178182,43.93141 7.861109,11.49577 21.919162,20.35778 35.833508,22.58907 5.91768,0.94898 18.17907,0.4559 21.2687,-0.8553 1.12864,-0.47897 2.63386,-0.94087 3.3449,-1.0264 2.61174,-0.31421 11.33023,-4.57374 15.65324,-7.64765 6.5245,-4.6392 14.15132,-14.0053 17.50134,-21.49241 3.69969,-8.26872 5.29155,-17.75087 4.49387,-26.76845 -0.36688,-4.14737 -1.17728,-8.83714 -1.80091,-10.42177 -0.62361,-1.58455 -1.60608,-4.25863 -2.18326,-5.94242 -1.40695,-4.10407 -4.42717,-9.3654 -7.88957,-13.74357 -3.49814,-4.42341 -13.19797,-11.98506 -19.01118,-14.82045 z m -14.72363,65.18824 c -5.11147,2.27897 -8.47487,2.60966 -13.8786,1.3645 -5.28656,-1.21812 -5.98403,-1.13847 -7.67465,0.87616 -1.43549,1.71138 -0.60107,5.92184 1.32294,6.67298 4.99833,1.95146 9.41869,2.49615 15.02288,1.85104 9.17043,-1.05557 14.82805,-5.62707 12.3334,-9.96578 -1.30363,-2.26731 -3.3243,-2.49388 -7.12597,-0.7989 z"
       id="path589"
       sodipodi:nodetypes="scccsscsscssssssssssscccccscccccccscsscccscscccccscsccccssccsscssssssssssssssssssssss" /><circle
       style="display:inline;fill:none;stroke:#000000;stroke-width:0.755906;stroke-linecap:round;stroke-linejoin:round;paint-order:stroke fill markers;image-rendering:auto"
       id="path363"
       cx="119.46724"
       cy="342.33017"
       inkscape:label="path363"
       r="40"
       sodipodi:insensitive="true" /><path
       style="fill:none;stroke:#000000;stroke-width:0.755906;stroke-linecap:round;stroke-linejoin:round;paint-order:stroke fill markers"
       d="m 122.51171,368.70326 c -5.02048,0.50178 -11.32716,1.58388 -15.02288,-1.85104 -1.66098,-1.54377 -2.75806,-4.91728 -1.32293,-6.67298 2.80608,-3.43289 8.87261,-0.27302 13.30134,-0.0605 6.28117,0.30141 12.08511,-6.36819 15.37788,-1.38128 2.06482,3.12716 -0.67912,4.99446 -2.35525,6.6389 -2.5027,2.45538 -6.48948,2.97822 -9.97816,3.3269 z"
       id="path1020"
       sodipodi:nodetypes="aaassaa" /></g></svg>
