<?xml version="1.0" encoding="UTF-8" standalone="no"?>
<!-- Created with Inkscape (http://www.inkscape.org/) -->

<svg
   version="1.1"
   id="svg98"
   width="512"
   height="512"
   viewBox="0 0 512.00006 512.00004"
   sodipodi:docname="logo.svg"
   inkscape:version="1.2.2 (b0a8486541, 2022-12-01)"
   xml:space="preserve"
   xmlns:inkscape="http://www.inkscape.org/namespaces/inkscape"
   xmlns:sodipodi="http://sodipodi.sourceforge.net/DTD/sodipodi-0.dtd"
   xmlns="http://www.w3.org/2000/svg"
   xmlns:svg="http://www.w3.org/2000/svg"><defs
     id="defs102" /><sodipodi:namedview
     id="namedview100"
     pagecolor="#505050"
     bordercolor="#eeeeee"
     borderopacity="1"
     inkscape:showpageshadow="0"
     inkscape:pageopacity="0"
     inkscape:pagecheckerboard="0"
     inkscape:deskcolor="#505050"
     showgrid="false"
     inkscape:zoom="0.5472555"
     inkscape:cx="66.696452"
     inkscape:cy="460.47961"
     inkscape:window-width="1920"
     inkscape:window-height="1031"
     inkscape:window-x="0"
     inkscape:window-y="1105"
     inkscape:window-maximized="1"
     inkscape:current-layer="g104" /><g
     inkscape:groupmode="layer"
     inkscape:label="Image"
     id="g104"
     transform="translate(50.128645,12.146025)"><path
       style="fill:#000000;stroke-width:2.79378"
       d="m 34.797215,259.89899 c -59.914706,-6.73223 -84.925854,-13.71716 -84.925854,-23.71751 0,-6.60612 6.804695,-34.67372 16.93307,-49.64949 C -4.8822755,144.66808 34.747917,104.73561 84.593545,81.171929 l 17.075315,-8.072057 c 1.56837,-48.971263 50.25025,-85.014606 103.31014,-84.693181 53.05993,0.321437 103.4229,38.086666 102.05833,87.004395 46.77071,16.925243 87.7314,50.023694 118.29214,85.292794 18.56598,21.42635 36.53743,64.10432 36.54188,73.29086 0.002,7.74456 -29.50052,22.11839 -70.48841,24.98058 -40.98787,2.86216 -55.95067,4.10437 -78.25465,2.96092 -78.12282,4.53456 -127.27855,3.97177 -230.469734,1.59905 -3.35783,0.58065 -31.752543,-2.17771 -47.861341,-3.63614 -16.108797,-1.45844 0,-1.3e-4 0,-1.3e-4 z M 21.784966,207.73541 c 26.172692,-4.20351 52.605374,-7.64049 79.189064,-9.20776 38.06321,-2.24405 76.31449,-0.16645 114.47172,-0.24954 38.15725,-0.0831 114.47173,-0.24958 114.47173,-0.24958 0,0 -41.09377,-7.71984 -59.5253,-10.08075 -37.37996,-4.78089 -75.27834,-3.01476 -112.94543,-2.97453 l -83.945928,0.0897 35.104658,-7.58398 c 0,0 3.69515,-14.56327 7.85939,-21.02638 5.97323,-9.27078 17.74716,-24.44767 23.91086,-24.44767 0.84552,0 -6.03559,13.96497 -7.19579,21.26967 -0.9638,6.06799 0.25458,18.36313 0.25458,18.36313 0,0 33.38317,-51.91251 62.00545,-66.73895 19.4668,-10.083871 49.5734,-11.281751 67.32076,-11.326461 l -9.15773,-4.9573 c 0,0 -30.72241,-0.57599 -46.06354,-0.0392 -23.11357,0.80882 -46.13187,-0.0247 -69.15348,4.90744 -44.066209,9.440361 -80.49605,35.267941 -110.497408,62.812681 -17.790823,16.33403 -29.4122762,36.99396 -38.287003,58.06357 11.08147079,-3.36925 21.33411,-4.88163 32.183397,-6.62412 z"
       id="path436"
       sodipodi:nodetypes="asasczcaszcczcaaaccsccasacaccacacaca" /><path
       style="fill:#000000;stroke-width:0.603011"
       d="m 270.79914,275.83928 v 14.39034 l 2.79774,0.38363 c 1.53878,0.21114 7.98346,0.38959 14.32159,0.39697 12.86486,0.0125 15.20062,0.55883 18.56153,4.3232 3.78424,4.23866 3.56199,-2.39561 3.37966,100.8895 l -0.16627,94.07016 -1.35678,2.29579 c -1.53022,2.58914 -1.66439,3.09113 -0.66064,2.47074 0.43469,-0.26862 0.53238,-0.16523 0.2598,0.27599 -0.24011,0.38821 -0.69447,0.54648 -1.01004,0.3514 -0.31552,-0.19493 -1.39062,0.33303 -2.38909,1.17305 -0.9985,0.84013 -2.8246,1.80783 -4.05802,2.15038 -1.49779,0.41579 -33.14241,0.62396 -95.2815,0.62621 -90.55649,0.002 -93.0995,-0.0277 -95.30815,-1.15432 -1.24804,-0.6367 -3.16907,-2.06132 -4.26896,-3.16581 -4.16669,-4.18423 -3.86949,3.68737 -3.77728,-100.03944 0.0826,-92.9577 0.0945,-93.83538 1.31102,-96.58541 0.6752,-1.52639 2.07122,-3.4851 3.1023,-4.3527 3.67363,-3.09117 5.09422,-3.34181 18.93929,-3.34181 7.06302,0 13.27106,-0.16461 13.79567,-0.36617 0.83278,-0.31967 0.95385,-2.18599 0.95385,-14.7053 -3.95355,-39.77499 26.31961,-39.39373 22.31151,-0.0373 v 14.36512 l 1.35678,0.24782 c 0.74622,0.13658 7.73366,0.16941 15.52762,0.0726 7.79394,-0.0962 14.51005,-0.17631 14.92458,-0.17757 0.5819,-10e-4 0.75378,-3.28394 0.75378,-14.39288 -4.4001,-25.21012 22.45839,-32.1495 21.849,0.26149 l 0.16188,14.42987 15.80868,0.12653 15.80869,0.12654 0.17087,-14.72529 c -0.37616,-37.06862 21.92684,-44.32584 22.18089,-0.38332 z m -143.78655,51.66074 c -0.94883,0.87931 -1.50739,1.90543 -1.31298,2.41201 0.18614,0.48493 0.14326,0.88163 -0.095,0.88163 -0.23832,-6e-5 -0.36172,31.93869 -0.27415,70.97496 l 0.15916,70.97509 1.30272,1.38668 1.30274,1.38669 h 77.98522 c 77.18122,0 77.99766,-0.0125 79.19125,-1.20607 1.19258,-1.19258 1.20602,-2.01002 1.20602,-73.29499 v -72.08894 l -1.59557,-1.47878 -1.5956,-1.47872 h -77.31119 -77.3112 z m 79.1133,11.58777 67.08532,0.1531 v 61.80891 61.80895 l -67.38683,-0.15309 -67.38682,-0.15311 -0.15372,-61.10358 c -0.0845,-33.60694 0.0513,-61.42101 0.30151,-61.80896 0.34397,-0.53302 16.84407,-0.66786 67.54046,-0.55195 z m -12.44711,16.12057 c -4.41032,1.07305 -13.88764,5.5146 -14.35264,6.72639 -4.41467,4.18348 -9.94888,8.59232 -13.13282,13.3854 -5.82939,9.02392 -7.84584,16.51898 -7.39225,27.47681 0.33987,8.21072 1.31412,12.37717 4.38898,18.7701 5.67577,11.80041 17.0446,21.2656 29.98869,24.96726 11.69247,3.34376 26.08163,1.46253 36.67754,-4.79515 4.50638,-2.66132 12.47245,-9.82855 13.81801,-12.43229 0.49155,-0.95115 1.2457,-2.10078 1.67592,-2.55466 1.5802,-1.66725 5.06524,-9.39073 6.25704,-13.86683 1.79879,-6.7555 1.70316,-17.30254 -0.21938,-24.20234 -2.12327,-7.62008 -6.33973,-14.88057 -11.90323,-20.49665 -2.55876,-2.58293 -5.71802,-5.28317 -7.0206,-6.00054 -1.30253,-0.71732 -3.45369,-1.96685 -4.78033,-2.77675 -3.23368,-1.97401 -8.19682,-3.82639 -12.96478,-4.83868 -4.8172,-1.02277 -15.5522,-0.69729 -21.04006,0.63793 z m 15.31142,12.20198 c 7.42584,0.71743 17.00342,5.68384 21.81368,11.31138 2.69635,3.15443 5.60759,8.58317 7.07409,13.19128 1.40166,4.40443 0.97878,15.18141 -0.79423,20.24201 -3.64761,10.41105 -12.31273,18.51209 -22.61211,21.14004 -9.98226,2.54706 -20.1412,0.89139 -27.2869,-4.44709 -10.10361,-7.5483 -14.65358,-16.05125 -14.66973,-27.4146 1.62915,-14.65277 8.30621,-23.59946 17.98279,-30.99145 4.48377,-1.93319 9.5137,-2.69615 14.39663,-3.36587 0.92606,0.0557 2.76914,0.20602 4.09578,0.33438 z m 11.13563,39.82007 c -2.16493,4.3814 -4.24114,6.47878 -8.5672,8.65451 -4.23226,2.12858 -4.65663,2.57096 -4.66974,4.86755 -0.0107,1.95052 2.89749,4.3152 4.60939,3.7474 4.44736,-1.475 7.722,-3.5733 11.12896,-7.13125 5.57504,-5.82204 6.82892,-12.04874 2.73339,-13.57403 -2.14023,-0.7971 -3.62465,0.17715 -5.2348,3.43582 z"
       id="path589"
       sodipodi:nodetypes="scccsscsscssssssssssscccccscccccccscsscccscscccccscsccccssccsscsssssssssssssssssssscccssssssssss" /></g></svg>
