<?xml version="1.0" encoding="UTF-8" standalone="no"?>
<!-- Created with Inkscape (http://www.inkscape.org/) -->

<svg
   version="1.1"
   id="svg98"
   width="512"
   height="512"
   viewBox="0 0 512.00006 512.00004"
   sodipodi:docname="logo.svg"
   inkscape:version="1.2.2 (b0a8486541, 2022-12-01)"
   xml:space="preserve"
   inkscape:export-filename="16.png"
   inkscape:export-xdpi="3"
   inkscape:export-ydpi="3"
   xmlns:inkscape="http://www.inkscape.org/namespaces/inkscape"
   xmlns:sodipodi="http://sodipodi.sourceforge.net/DTD/sodipodi-0.dtd"
   xmlns="http://www.w3.org/2000/svg"
   xmlns:svg="http://www.w3.org/2000/svg"><defs
     id="defs102" /><sodipodi:namedview
     id="namedview100"
     pagecolor="#505050"
     bordercolor="#eeeeee"
     borderopacity="1"
     inkscape:showpageshadow="0"
     inkscape:pageopacity="0"
     inkscape:pagecheckerboard="0"
     inkscape:deskcolor="#505050"
     showgrid="false"
     inkscape:zoom="0.6251321"
     inkscape:cx="-94.380052"
     inkscape:cy="17.596281"
     inkscape:window-width="1920"
     inkscape:window-height="1031"
     inkscape:window-x="0"
     inkscape:window-y="1105"
     inkscape:window-maximized="1"
     inkscape:current-layer="g104" /><g
     inkscape:groupmode="layer"
     inkscape:label="Image"
     id="g104"
     transform="translate(50.128645,12.146025)"><path
       style="fill:#000000;stroke-width:3.58237"
       d="M 9.5247339,164.89283 C -14.234989,134.89372 -53.005566,74.329145 -45.204119,63.972112 -40.05057,57.130379 -11.09106,33.561062 9.4534977,27.098572 78.470457,5.3886202 113.9898,5.5440575 224.78091,25.479418 c 39.67836,-49.370567 113.58065,-44.878052 163.23157,1.037291 49.65094,45.915393 67.5549,128.293181 28.10999,177.783381 30.78315,57.70849 43.39862,124.92069 44.71277,189.95682 0.61608,30.48956 -2.30329,71.1378 -17.34723,89.82767 C 434.8508,494.81504 327.81286,437.21455 276.33935,402.71061 177.37692,336.3737 83.494739,258.28762 9.5247339,164.89283 Z M 88.084724,180.89485 C 178.57318,151.92113 302.76015,140.46916 360.3134,185.07212 275.23271,20.653843 110.75966,33.861113 9.1849825,75.503064 43.406868,133.84398 49.909057,133.76685 88.084724,180.89485 Z"
       id="path436"
       sodipodi:nodetypes="asaczcasaacccc" /><ellipse
       style="fill:none;stroke:#000000;stroke-width:24.8199;stroke-linecap:round;stroke-linejoin:round;stroke-dasharray:none;paint-order:stroke fill markers;stop-color:#000000"
       id="path526"
       cx="-356.99625"
       cy="58.857391"
       transform="matrix(-0.15897193,-0.9872831,0.98937275,-0.14540141,0,0)"
       rx="141.31789"
       ry="147.60938" /><path
       style="fill:none;stroke:#000000;stroke-width:12.4093;stroke-linecap:round;stroke-linejoin:round;stroke-dasharray:none;paint-order:stroke fill markers;stop-color:#000000"
       d="M 25.381597,322.71982 146.83909,423.43479 92.006787,483.76898"
       id="path5230"
       sodipodi:nodetypes="ccc"
       inkscape:label="path5230" /><path
       style="fill:none;stroke:#000000;stroke-width:12.4093;stroke-linecap:round;stroke-linejoin:round;stroke-dasharray:none;paint-order:stroke fill markers;stop-color:#000000"
       d="M 55.512969,314.18232 116.08742,247.42076"
       id="path5232"
       sodipodi:nodetypes="cc" /><path
       style="fill:none;stroke:#000000;stroke-width:12.4093;stroke-linecap:round;stroke-linejoin:round;stroke-dasharray:none;paint-order:stroke fill markers;stop-color:#000000"
       d="m 209.61882,330.60227 -57.46713,61.89464"
       id="path5234"
       sodipodi:nodetypes="cc" /><path
       style="fill:none;stroke:#000000;stroke-width:12.8309;stroke-linecap:round;stroke-linejoin:round;stroke-dasharray:none;paint-order:stroke fill markers;stop-color:#000000"
       d="m 42.509435,304.1785 25.755377,21.35689"
       id="path5962" /><path
       style="fill:none;stroke:#000000;stroke-width:11.6406;stroke-linecap:round;stroke-linejoin:round;stroke-dasharray:none;paint-order:stroke fill markers;stop-color:#000000"
       d="m 88.961527,342.6975 28.100923,23.30185"
       id="path5964" /><path
       style="fill:none;stroke:#000000;stroke-width:12.0191;stroke-linecap:round;stroke-linejoin:round;stroke-dasharray:none;paint-order:stroke fill markers;stop-color:#000000"
       d="m 137.44557,382.90145 28.12218,23.31948"
       id="path5966" /><path
       style="fill:none;stroke:#000000;stroke-width:12.4093;stroke-linecap:round;stroke-linejoin:round;stroke-dasharray:none;paint-order:stroke fill markers;stop-color:#000000"
       d="m 161.11137,290.66099 -57.40659,62.93604"
       id="path5968"
       sodipodi:nodetypes="cc" /><path
       sodipodi:type="star"
       style="fill:#000000;stroke:#000000;stroke-width:8;stroke-linecap:round;stroke-linejoin:round;stroke-dasharray:none;paint-order:stroke fill markers;stop-color:#000000"
       id="path6022"
       inkscape:flatsided="false"
       sodipodi:sides="3"
       sodipodi:cx="661.75299"
       sodipodi:cy="179.10268"
       sodipodi:r1="37.804733"
       sodipodi:r2="19.333757"
       sodipodi:arg1="3.1328907"
       sodipodi:arg2="4.1800883"
       inkscape:rounded="0"
       inkscape:randomized="0"
       d="m 623.94969,179.43165 27.99109,-16.98775 28.42896,-16.24433 0.71628,32.73487 -0.14648,32.74237 -28.70736,-15.74712 z"
       transform="matrix(0.72940194,-0.76682308,0.75379107,0.59702002,-480.09657,717.21113)"
       inkscape:transform-center-x="-15.258738"
       inkscape:transform-center-y="-8.2064765" /></g></svg>
