<?xml version="1.0" encoding="UTF-8" standalone="no"?>
<!-- Created with Inkscape (http://www.inkscape.org/) -->

<svg
   width="100mm"
   height="100mm"
   viewBox="0 0 100 100"
   version="1.1"
   id="svg447"
   xml:space="preserve"
   xmlns="http://www.w3.org/2000/svg"
   xmlns:svg="http://www.w3.org/2000/svg"><defs
     id="defs444"><linearGradient
       id="linearGradient6156"><stop
         style="stop-color:#000000;stop-opacity:1;"
         offset="0"
         id="stop6154" /></linearGradient></defs><g
     id="layer1"
     transform="translate(25.500006,15.500006)"
     style="display:inline"><path
       id="rect396"
       style="display:inline;fill:#000000;fill-opacity:0.00275508;stroke:#000000;stroke-width:4;stroke-linecap:butt;stroke-linejoin:miter;stroke-miterlimit:7;stroke-dasharray:none;stroke-opacity:1;paint-order:normal;stop-color:#000000"
       d="M -5.5000065,-5.5000065 H 30.499994 v 10 l -8,8.0000005 h 24 l -8,-8.0000005 v -10 h 16 c 10,0 10,0 10,10 V 28.499994 l -10,-8 h -40 l -16.0000005,14 c -8,6 -6.5806439,6 -4,6 H 28.499994 c 0,0 0.838713,6 6,6 5.161289,0 6,-6 6,-6 h 24 v 24 c 0,10 0,10 -10,10 H -5.5000065 c -9.9999995,0 -9.9999995,0 -9.9999995,-10 V 4.4999935 c 0,-10 0,-10 9.9999995,-10 z" /></g></svg>
